<?xml version="1.0" encoding="utf-8"?>
<!-- Generator: Adobe Illustrator 21.1.0, SVG Export Plug-In . SVG Version: 6.00 Build 0)  -->
<svg version="1.1" id="圖層_1" xmlns="http://www.w3.org/2000/svg" xmlns:xlink="http://www.w3.org/1999/xlink" x="0px" y="0px"
	 viewBox="0 0 24 24" style="enable-background:new 0 0 24 24;" xml:space="preserve">
<g>
	<path d="M17,4.1c-1.2,0.2-3.9,1.8-4.7,2.8c1.6-0.1,3.1-0.4,4.6-0.6c1.5-0.2,3-0.5,4.4-0.8c-0.1,0.1-0.3,0.1-0.5,0.2
		c-1.9,0.8-3.9,1.4-5.8,2c-0.7,0.2-1.3,0.4-2,0.7c-0.8,0.3-1.5,0.9-1.9,1.6c-0.6,1-1.2,2.1-1.8,3.1c-0.1,0.2-0.2,0.5-0.3,0.8
		c0.1-1.5,0.7-2.8,1.4-4.1c-1.3,0.5-2.3,1.6-3.5,2.3l0,0C7,12,7,11.9,7.1,11.8c0.8-1,1.5-2.1,2.3-3.1s1.7-1.9,2.8-2.6
		c1.3-0.9,2.7-1.5,4.2-1.9c0.1-0.1,0.3-0.1,0.4-0.1C17,4,17,4.1,17,4.1z"/>
	<path d="M12.5,15.3c-2,0.5-3.7-0.4-5.4-1.4L7,14l0.4,1c-0.1,0-0.1-0.1-0.2-0.1c-0.9-0.6-1.5-1.5-1.7-2.5c-0.1-0.6-0.2-1.2-0.3-1.8
		C5.1,10.2,4.9,10,4.4,10c-0.1,0-0.1,0-0.2,0c0.3-0.2,0.5,0,0.8,0c0-0.2,0-0.4,0-0.6c0-1.4,0-2.8,0-4.2C5.1,4,4.7,2.8,4,1.8
		C3.8,1.5,3.5,1,3.5,1S3,0.3,2.7,0c0.1,0,0.8,0.8,1.3,1.2c0.6,0.6,1.2,1.3,1.6,2.1c0.3,0.6,0.4,1.3,0.5,2C6.3,7,6.3,8.8,6.4,10.5
		c0,0.5,0,1,0.1,1.5c0,0.4,0.2,0.8,0.5,1c1,0.9,2.2,1.6,3.5,2C11.1,15.2,11.9,15.3,12.5,15.3z"/>
	<path d="M11.5,16.2l1.4-0.5c-0.2,0.1-0.3,0.2-0.4,0.3c-0.1,0.1-0.3,0.1-0.5,0.2l0.3,0.4c-0.1,0-0.2,0.1-0.2,0.1
		c-0.5,0.1-1,0.2-1.5,0.1c-0.2-0.1-0.5,0-0.7,0.1c-0.3,0.2-0.7,0.3-1,0.5c1.2,3.1,3.2,5.5,6.5,6.5L15.4,24c-0.3-0.1-0.6-0.2-0.9-0.3
		c-1.8-0.7-3.4-1.6-4.7-3.1C9,19.8,8.4,18.8,8,17.7c-0.1-0.2-0.1-0.3-0.4-0.3c-1.8-0.2-2.9-1.2-3.4-2.8c-0.3-0.7-0.4-1.5-0.6-2.3
		l0.1,0c0,0.1,0,0.1,0.1,0.2c0,0.1,0,0.1,0.1,0.2c0.5,1.6,1.4,2.9,2.8,3.8C7,16.7,7.3,16.9,7.7,17c0.6,0.2,1.2,0.2,1.7,0
		c0.5-0.2,1-0.3,1.5-0.2c0.2,0,0.4,0,0.6,0c0.1,0,0.2-0.1,0.2-0.2c0-0.1-0.1-0.2-0.1-0.2C11.6,16.2,11.5,16.2,11.5,16.2z"/>
	<path d="M3.5,10.4l-0.1,0.5c-0.2,0-0.5-0.3-0.5-0.4c0-0.1,0.1-0.3,0.3-0.2C3.3,10.3,3.4,10.4,3.5,10.4z"/>
</g>
</svg>
