<?xml version="1.0" encoding="utf-8"?>
<!-- Generator: Adobe Illustrator 21.1.0, SVG Export Plug-In . SVG Version: 6.00 Build 0)  -->
<svg version="1.1" id="圖層_1" xmlns="http://www.w3.org/2000/svg" xmlns:xlink="http://www.w3.org/1999/xlink" x="0px" y="0px"
	 viewBox="0 0 228 228" style="enable-background:new 0 0 228 228;" xml:space="preserve">
<style type="text/css">
	.st0{fill:#0047BB;}
	.st1{fill:#FFFFFF;}
</style>
<path class="st0" d="M196,228H32c-17.6,0-32-14.4-32-32V32C0,14.4,14.4,0,32,0h164c17.6,0,32,14.4,32,32v164
	C228,213.6,213.6,228,196,228z"/>
<path class="st1" d="M161.8,39.2C150.1,41,124.6,56,117.1,65.7c14.9-1.3,29.1-3.5,43.3-5.7s28.4-5.2,42-7.7
	c-1.1,0.5-2.9,1.4-4.7,2.2c-17.9,7.9-36.6,13.4-55.3,18.8c-6.4,1.8-12.7,3.7-18.9,6.2c-7.5,3-13.8,8.4-17.8,15.5
	c-5.7,9.8-11.4,19.6-16.9,29.5c-1.3,2.3-2,4.8-3.2,7.2c0.6-14.1,6.6-26.5,13.3-38.5c-12.8,4.7-21.7,15.1-33,21.8l-0.4-0.4
	c0.6-0.8,1.2-1.5,1.8-2.3C74.5,102.5,82,92.7,89,82.7s16-18,26.3-24.6c12.3-8.1,25.7-14.3,39.8-18.5c1.3-0.5,2.6-0.8,3.9-1
	C161.4,38.3,161.8,39.2,161.8,39.2z"/>
<path class="st1" d="M118.6,145.9c-19.1,4.8-35.5-4-51.7-13.3l-0.7,0.6l3.6,9.8c-0.6-0.3-1.2-0.6-1.8-0.9
	c-8.4-5.3-14.1-13.9-15.8-23.6c-1.1-5.7-1.9-11.3-2.7-17c-0.6-4.2-3.2-6.5-7.4-6.5c-0.6,0-1.1-0.1-1.7-0.3c2.4-2.2,5.1-0.1,7.9-0.4
	c0.1-1.7,0.4-3.5,0.4-5.3c-0.1-13.3,0-26.6-0.4-39.8c-0.2-11.5-3.9-22.7-10.5-32.1c-1.6-2.3-5-7.5-5-7.5s-4.5-6.8-7.2-9.5
	c0.7,0.2,7.5,7.3,11.9,11.4c6,5.9,11.1,12.7,15,20.1c3.1,5.9,3.9,12.5,5,18.9c2.7,16.3,2,32.9,2.9,49.3c0.3,4.9,0.4,9.8,0.9,14.6
	c0.4,3.7,2.2,7.2,5,9.6c9.8,8.5,20.6,15.5,33.3,18.9C105.9,144.6,112.6,145,118.6,145.9z"/>
<path class="st1" d="M109.1,154l13.6-4.7c-1.6,1.1-2.7,1.9-3.9,2.6s-2.7,1.3-4.6,2.1l3.1,3.8c-0.7,0.4-1.5,0.8-2.2,1.1
	c-4.5,1.3-9.2,1.5-13.8,0.6c-2.3-0.5-4.8-0.1-6.8,1.2c-3.1,1.8-6.4,3.3-9.6,5c11.4,29.9,30.3,52.2,62,61.7l-0.5,0.7
	c-2.8-1-5.5-1.9-8.3-3c-17.2-6.3-32.7-15.3-45.1-29.1c-7.1-8.1-12.9-17.3-17.2-27.3c-0.7-1.5-1.4-2.7-3.4-2.9
	c-16.7-1.5-27.2-11.1-32.6-26.4c-2.5-7-3.6-14.5-5.3-21.8l0.8-0.2c0.2,0.5,0.4,1,0.6,1.5c0.2,0.5,0.3,1.2,0.5,1.8
	c4.3,15.5,12.9,27.9,26.8,36.3c3.2,1.9,6.5,3.3,10,4.5c5.3,1.9,11,1.7,16.2-0.4c4.5-1.9,9.4-2.7,14.3-2.3c2,0.1,4,0,6-0.3
	c0.7-0.1,1.9-1,1.9-1.5c-0.2-0.9-0.7-1.7-1.4-2.3C109.8,154.3,109.5,154.1,109.1,154z"/>
<path class="st1" d="M33.6,98.7l-0.7,5c-1.5,0.1-5.1-2.5-5-3.8s0.6-2.5,2.4-2C31.4,98.4,32.6,98.5,33.6,98.7z"/>
</svg>
